HIERARCHY
ROOT Hips
{
	OFFSET	0.00	0.00	0.00
	CHANNELS 6 Xposition Yposition Zposition Zrotation Xrotation Yrotation
	JOINT LeftUpLeg
	{
		OFFSET	 0.126116	-0.014019	-0.065224
		CHANNELS 3 Zrotation Xrotation Yrotation
		JOINT LeftLeg
		{
			OFFSET	 0.000000	 0.000000	 0.569914
			CHANNELS 3 Zrotation Xrotation Yrotation
			JOINT LeftFoot
			{
				OFFSET	 0.000000	 0.000000	 0.544423
				CHANNELS 3 Zrotation Xrotation Yrotation
				JOINT LeftToeBase
				{
					OFFSET	 0.000000	 0.000000	 0.207117
					CHANNELS 3 Zrotation Xrotation Yrotation
					End Site
					{
						OFFSET	 0.000000	 0.000000	 0.207117
					}
				}
			}
		}
	}
	JOINT RightUpLeg
	{
		OFFSET	-0.124023	-0.008373	-0.065224
		CHANNELS 3 Zrotation Xrotation Yrotation
		JOINT RightLeg
		{
			OFFSET	 0.000000	 0.000000	 0.570047
			CHANNELS 3 Zrotation Xrotation Yrotation
			JOINT RightFoot
			{
				OFFSET	 0.000000	 0.000000	 0.544354
				CHANNELS 3 Zrotation Xrotation Yrotation
				JOINT RightToeBase
				{
					OFFSET	 0.000000	 0.000000	 0.207540
					CHANNELS 3 Zrotation Xrotation Yrotation
					End Site
					{
						OFFSET	 0.000000	 0.000000	 0.207540
					}
				}
			}
		}
	}
	JOINT Spine
	{
		OFFSET	 0.000184	-0.007763	 0.117403
		CHANNELS 3 Zrotation Xrotation Yrotation
		JOINT Spine1
		{
			OFFSET	 0.000000	 0.000000	 0.137269
			CHANNELS 3 Zrotation Xrotation Yrotation
			JOINT Spine2
			{
				OFFSET	 0.000000	 0.000000	 0.156879
				CHANNELS 3 Zrotation Xrotation Yrotation
				JOINT LeftShoulder
				{
					OFFSET	 0.080501	-0.002496	 0.160144
					CHANNELS 3 Zrotation Xrotation Yrotation
					JOINT LeftArm
					{
						OFFSET	 0.000000	 0.000000	 0.164363
						CHANNELS 3 Zrotation Xrotation Yrotation
						JOINT LeftForeArm
						{
							OFFSET	 0.000000	 0.000000	 0.364576
							CHANNELS 3 Zrotation Xrotation Yrotation
							JOINT LeftHand
							{
								OFFSET	 0.000000	 0.000000	 0.360812
								CHANNELS 3 Zrotation Xrotation Yrotation
								JOINT LeftHandIndex1
								{
									OFFSET	 0.000000	 0.000000	 0.086006
									CHANNELS 3 Zrotation Xrotation Yrotation
									JOINT LeftHandIndex2
									{
										OFFSET	 0.000000	 0.000000	 0.047236
										CHANNELS 3 Zrotation Xrotation Yrotation
										JOINT LeftHandIndex3
										{
											OFFSET	-0.004284	-0.000551	 0.038166
											CHANNELS 3 Zrotation Xrotation Yrotation
											End Site
											{
												OFFSET	-0.004284	-0.000551	 0.038166
											}
										}
									}
								}
							}
						}
					}
				}
				JOINT Neck
				{
					OFFSET	 0.000000	 0.000000	 0.176489
					CHANNELS 3 Zrotation Xrotation Yrotation
					JOINT Head
					{
						OFFSET	 0.000000	-0.001747	 0.077940
						CHANNELS 3 Zrotation Xrotation Yrotation
						End Site
						{
							OFFSET	 0.000000	-0.001747	 0.077940
						}
					}
				}
				JOINT RightShoulder
				{
					OFFSET	-0.080363	 0.000306	 0.159706
					CHANNELS 3 Zrotation Xrotation Yrotation
					JOINT RightArm
					{
						OFFSET	 0.000000	 0.000000	 0.164196
						CHANNELS 3 Zrotation Xrotation Yrotation
						JOINT RightForeArm
						{
							OFFSET	 0.000000	 0.000000	 0.365611
							CHANNELS 3 Zrotation Xrotation Yrotation
							JOINT RightHand
							{
								OFFSET	 0.000000	 0.000000	 0.360648
								CHANNELS 3 Zrotation Xrotation Yrotation
								JOINT RightHandIndex1
								{
									OFFSET	 0.000000	 0.000000	 0.069977
									CHANNELS 3 Zrotation Xrotation Yrotation
									JOINT RightHandIndex2
									{
										OFFSET	 0.000000	 0.000000	 0.052305
										CHANNELS 3 Zrotation Xrotation Yrotation
										JOINT RightHandIndex3
										{
											OFFSET	 0.009002	-0.000782	 0.042196
											CHANNELS 3 Zrotation Xrotation Yrotation
											End Site
											{
												OFFSET	 0.009002	-0.000782	 0.042196
											}
										}
									}
								}
							}
						}
					}
				}
			}
		}
	}
}
MOTION
Frames:    9
Frame Time: 0.03333334
 0.000538	 0.043858	 1.272937	-0.086047	 2.452609	 0.721703	 10.982290	-7.166293	 177.297800	 2.309894	-15.206870	 0.715660	-0.448671	 71.829090	 0.307937	-2.385833	 28.452750	 0.000004	-3.487381	-6.307732	-178.060400	-0.768133	-13.107230	 0.994690	 5.930091	 70.528000	 0.347460	 2.384659	 28.388700	-0.000001	 1.670454	 7.228945	-0.388625	 1.481441	-5.620142	 0.351179	-3.867905	 9.236284	 0.743917	-91.175540	 69.828870	-177.840800	-6.870950	 1.530030	-20.867510	 25.771570	-0.127218	-0.632792	-8.500460	-9.794079	-4.093279	-2.027600	 6.559038	 9.033609	-5.188889	 0.308190	 3.541030	-5.234859	 0.342567	 0.430617	 4.357492	 17.679970	-6.652517	-9.051908	-13.356740	 1.759103	 89.023030	 68.739270	 177.382600	 10.074960	 9.143331	 18.762510	-27.866030	-0.175085	 0.640883	 5.539312	-9.913786	 6.145702	 1.803333	 3.979147	-15.098590	 4.898592	 3.004813	-9.310344	 5.224449	 0.395017	 2.014677
 0.000464	 0.045005	 1.272025	-0.077011	 2.645320	 0.748153	 11.066320	-7.777423	 177.305200	 2.276932	-15.895510	 0.738203	-0.170438	 72.085430	 0.048222	-2.385833	 28.452750	 0.000004	-3.613451	-6.919148	-178.134500	-0.747568	-13.812970	 1.052153	 5.934273	 70.822850	 0.342459	 2.384659	 28.388700	-0.000001	 1.270854	 7.458192	-0.403956	 1.471414	-6.267893	 0.354390	-3.833643	 10.151080	 0.799728	-91.125370	 69.486150	-177.725200	-6.501527	 1.461817	-21.478050	 25.487780	-0.124072	-0.692752	-7.993246	-10.075870	-4.171841	-2.027600	 6.559038	 9.033609	-5.188889	 0.308190	 3.541030	-5.234859	 0.342567	 0.430617	 4.461884	 18.575470	-6.935740	-9.010178	-13.886200	 1.726878	 88.954470	 68.268160	 177.244000	 9.855007	 9.212952	 19.332090	-27.766200	-0.173420	 0.700493	 5.018442	-10.018570	 5.987151	 1.803333	 3.979147	-15.098590	 4.898592	 3.004813	-9.310344	 5.224449	 0.395017	 2.014677
 0.000237	 0.048267	 1.269537	-0.048467	 3.157926	 0.819400	 11.266410	-9.356925	 177.327300	 2.216225	-17.606810	 0.796879	 0.575622	 72.710720	-0.678378	-2.385833	 28.452750	 0.000004	-3.940748	-8.485896	-178.334800	-0.696037	-15.547950	 1.195096	 5.879087	 71.522630	 0.406810	 2.384659	 28.388700	-0.000001	 0.255505	 8.017335	-0.437017	 1.438546	-7.775369	 0.355791	-3.742113	 12.334220	 0.929912	-91.004110	 68.677140	-177.461800	-5.580763	 1.584046	-23.098230	 24.765460	-0.114278	-0.844020	-6.804421	-10.798660	-4.415455	-2.027600	 6.559038	 9.033609	-5.188889	 0.308190	 3.541030	-5.234859	 0.342567	 0.430617	 4.693737	 20.736370	-7.619144	-8.852210	-15.175720	 1.650472	 88.780470	 67.095230	 176.914600	 9.198718	 9.647954	 20.792790	-27.485320	-0.166567	 0.848965	 3.747856	-10.296180	 5.615968	 1.803333	 3.979147	-15.098590	 4.898592	 3.004813	-9.310344	 5.224449	 0.395017	 2.014677
-0.000165	 0.052395	 1.266632	 0.007631	 3.819902	 0.906655	 11.350790	-11.192900	 177.349200	 2.177308	-19.417540	 0.887160	 1.434338	 73.405100	-1.622402	-2.385833	 28.452750	 0.000004	-4.315588	-10.284450	-178.588600	-0.652218	-17.350020	 1.342676	 5.615335	 72.210170	 0.720085	 2.384659	 28.388700	-0.000001	-0.735814	 8.521001	-0.458073	 1.417801	-9.165396	 0.332944	-3.725382	 14.236970	 1.066912	-90.918150	 68.074630	-177.293800	-4.729818	 2.303693	-24.749940	 23.948430	-0.101339	-1.001657	-5.873862	-11.770600	-4.821163	-2.027600	 6.559038	 9.033609	-5.188889	 0.308190	 3.541030	-5.234859	 0.342567	 0.430617	 4.719188	 22.578050	-8.150719	-8.568500	-16.379100	 1.588638	 88.615150	 65.930670	 176.639600	 8.304768	 10.405620	 22.222500	-26.998650	-0.157298	 1.008718	 2.544167	-10.734040	 5.346671	 1.803333	 3.979147	-15.098590	 4.898592	 3.004813	-9.310344	 5.224449	 0.395017	 2.014677
-0.000512	 0.056102	 1.264117	 0.053262	 4.361053	 0.974392	 11.529920	-12.691860	 177.397700	 2.260077	-20.844650	 0.961402	 2.215584	 73.918380	-2.484258	-2.385833	 28.452750	 0.000004	-4.624361	-11.747620	-178.800900	-0.614677	-18.769660	 1.460837	 5.353189	 72.722630	 1.029338	 2.384659	 28.388700	-0.000001	-1.573711	 8.935609	-0.470619	 1.387462	-10.064820	 0.304043	-3.673132	 15.676370	 1.165041	-90.846350	 67.583920	-177.158600	-4.052971	 2.993718	-26.264300	 23.285710	-0.089064	-1.132586	-5.146586	-12.515560	-5.168045	-2.027600	 6.559038	 9.033609	-5.188889	 0.308190	 3.541030	-5.234859	 0.342567	 0.430617	 4.753632	 24.079230	-8.582241	-8.295885	-17.349350	 1.549551	 88.476260	 64.982600	 176.419100	 7.526753	 11.142430	 23.521980	-26.609290	-0.146312	 1.136638	 1.581180	-11.056910	 5.142056	 1.803333	 3.979147	-15.098590	 4.898592	 3.004813	-9.310344	 5.224449	 0.395017	 2.014677
-0.001024	 0.061734	 1.261001	 0.124183	 5.242898	 1.078008	 11.775090	-14.849480	 177.506900	 2.381642	-22.644810	 1.047893	 3.539364	 74.526950	-3.914162	-2.385833	 28.452760	 0.000004	-5.092141	-13.765550	-179.124400	-0.768542	-20.382580	 1.527318	 4.879485	 73.267680	 1.795540	 2.384659	 28.388700	-0.000001	-2.669955	 9.416122	-0.500278	 1.340971	-11.215760	 0.295334	-3.626962	 17.333160	 1.240118	-90.827170	 66.742570	-177.241600	-3.082244	 3.673394	-27.974060	 21.804930	-0.065528	-1.308801	-4.787390	-13.421660	-5.862062	-2.027600	 6.559038	 9.033609	-5.188889	 0.308190	 3.541030	-5.234859	 0.342567	 0.430617	 4.584826	 25.277190	-8.765341	-7.935175	-18.093190	 1.424748	 88.410030	 63.663050	 176.459300	 6.078677	 11.772960	 24.966040	-25.718390	-0.127589	 1.312447	 0.423898	-11.379150	 5.168005	 1.803333	 3.979147	-15.098590	 4.898592	 3.004813	-9.310344	 5.224449	 0.395017	 2.014677
-0.001458	 0.066445	 1.258642	 0.181788	 5.966810	 1.152758	 11.793850	-16.582440	 177.572100	 2.320842	-24.054850	 1.116494	 4.717674	 74.978960	-5.187366	-2.385832	 28.452790	-0.000001	-5.472357	-15.349770	-179.388700	-0.941458	-21.546380	 1.546639	 4.447221	 73.630170	 2.509133	 2.384659	 28.388700	-0.000001	-3.518498	 9.782585	-0.518294	 1.301295	-11.837860	 0.279209	-3.568855	 18.425080	 1.275823	-90.834480	 66.050320	-177.364200	-2.392153	 4.031294	-29.297650	 20.523160	-0.043790	-1.446409	-4.687285	-14.058480	-6.453245	-2.027600	 6.559038	 9.033609	-5.188889	 0.308190	 3.541030	-5.234859	 0.342567	 0.430617	 4.400963	 26.009570	-8.807802	-7.632285	-18.534270	 1.317121	 88.393020	 62.633800	 176.564200	 4.928762	 12.054290	 26.116700	-24.941140	-0.110828	 1.451586	-0.421284	-11.576370	 5.272250	 1.803333	 3.979147	-15.098590	 4.898592	 3.004813	-9.310344	 5.224449	 0.395017	 2.014677
-0.001893	 0.073021	 1.255637	 0.292822	 6.969712	 1.212773	 11.881380	-18.835340	 177.756900	 2.322522	-25.692140	 1.188222	 6.401642	 75.362900	-6.996219	-2.385832	 28.452790	-0.000001	-5.884377	-17.464410	-179.692900	-1.026639	-22.962580	 1.579846	 3.695001	 73.999680	 3.579600	 2.384659	 28.388700	-0.000001	-4.612521	 10.192560	-0.528156	 1.249035	-12.519910	 0.263076	-3.452965	 19.600900	 1.312548	-90.973340	 65.383780	-177.827400	-1.602830	 4.700710	-30.591290	 19.103650	-0.015822	-1.620257	-4.621475	-14.671770	-7.192078	-2.027600	 6.559038	 9.033609	-5.188889	 0.308190	 3.541030	-5.234859	 0.342567	 0.430617	 4.151515	 26.650720	-8.818903	-7.210887	-18.925970	 1.215633	 88.504510	 61.666980	 176.952700	 3.487133	 12.495100	 26.448690	-24.030860	-0.524786	 3.113757	-1.427883	-11.803780	 5.401224	 1.803333	 3.979147	-15.098590	 4.898592	 3.004813	-9.310344	 5.224449	 0.395017	 2.014677
-0.002126	 0.079913	 1.252800	 0.452291	 8.028402	 1.227448	 11.905450	-21.046430	 178.022000	 2.291854	-27.088380	 1.234042	 8.159551	 75.506000	-8.870989	-2.385833	 28.452760	 0.000004	-6.437156	-19.587920	 179.985800	-1.169701	-24.214070	 1.633162	 2.741756	 74.236540	 4.776290	 2.384659	 28.388700	-0.000001	-5.657658	 10.475550	-0.527261	 1.199305	-13.238310	 0.270992	-3.310673	 20.507440	 1.341887	-91.294690	 65.071010	-178.716300	-0.874584	 5.790185	-31.183460	 18.079150	 0.010230	-1.780344	-4.602415	-15.023820	-7.866776	-2.027600	 6.559038	 9.033609	-5.188889	 0.308190	 3.541030	-5.234859	 0.342567	 0.430617	 3.893827	 26.827510	-8.774751	-6.787493	-19.051750	 1.162815	 88.802640	 61.259350	 177.697200	 2.105996	 13.067040	 23.876670	-23.173810	-2.120263	 9.145538	-2.296225	-12.017140	 5.501633	 1.803333	 3.979147	-15.098590	 4.898592	 3.004813	-9.310344	 5.224449	 0.395017	 2.014677
